%TF.GenerationSoftware,KiCad,Pcbnew,8.0.3*%
%TF.CreationDate,2024-07-01T16:11:11-07:00*%
%TF.ProjectId,gofaster,676f6661-7374-4657-922e-6b696361645f,rev?*%
%TF.SameCoordinates,Original*%
%TF.FileFunction,Legend,Bot*%
%TF.FilePolarity,Positive*%
%FSLAX46Y46*%
G04 Gerber Fmt 4.6, Leading zero omitted, Abs format (unit mm)*
G04 Created by KiCad (PCBNEW 8.0.3) date 2024-07-01 16:11:11*
%MOMM*%
%LPD*%
G01*
G04 APERTURE LIST*
G04 Aperture macros list*
%AMRoundRect*
0 Rectangle with rounded corners*
0 $1 Rounding radius*
0 $2 $3 $4 $5 $6 $7 $8 $9 X,Y pos of 4 corners*
0 Add a 4 corners polygon primitive as box body*
4,1,4,$2,$3,$4,$5,$6,$7,$8,$9,$2,$3,0*
0 Add four circle primitives for the rounded corners*
1,1,$1+$1,$2,$3*
1,1,$1+$1,$4,$5*
1,1,$1+$1,$6,$7*
1,1,$1+$1,$8,$9*
0 Add four rect primitives between the rounded corners*
20,1,$1+$1,$2,$3,$4,$5,0*
20,1,$1+$1,$4,$5,$6,$7,0*
20,1,$1+$1,$6,$7,$8,$9,0*
20,1,$1+$1,$8,$9,$2,$3,0*%
G04 Aperture macros list end*
%ADD10C,0.100000*%
%ADD11C,1.600000*%
%ADD12O,1.600000X1.600000*%
%ADD13C,1.440000*%
%ADD14RoundRect,0.102000X-0.975000X0.975000X-0.975000X-0.975000X0.975000X-0.975000X0.975000X0.975000X0*%
%ADD15C,2.154000*%
%ADD16R,1.600000X1.600000*%
%ADD17R,2.700000X2.700000*%
%ADD18C,2.700000*%
%ADD19C,4.800000*%
%ADD20C,1.400000*%
%ADD21C,6.400000*%
%ADD22RoundRect,0.102000X0.975000X-0.975000X0.975000X0.975000X-0.975000X0.975000X-0.975000X-0.975000X0*%
G04 APERTURE END LIST*
D10*
X102891354Y-125872419D02*
X102558021Y-126872419D01*
X102558021Y-126872419D02*
X102224688Y-125872419D01*
X101367545Y-126872419D02*
X101938973Y-126872419D01*
X101653259Y-126872419D02*
X101653259Y-125872419D01*
X101653259Y-125872419D02*
X101748497Y-126015276D01*
X101748497Y-126015276D02*
X101843735Y-126110514D01*
X101843735Y-126110514D02*
X101938973Y-126158133D01*
X102796116Y-146824800D02*
X102653259Y-146872419D01*
X102653259Y-146872419D02*
X102415164Y-146872419D01*
X102415164Y-146872419D02*
X102319926Y-146824800D01*
X102319926Y-146824800D02*
X102272307Y-146777180D01*
X102272307Y-146777180D02*
X102224688Y-146681942D01*
X102224688Y-146681942D02*
X102224688Y-146586704D01*
X102224688Y-146586704D02*
X102272307Y-146491466D01*
X102272307Y-146491466D02*
X102319926Y-146443847D01*
X102319926Y-146443847D02*
X102415164Y-146396228D01*
X102415164Y-146396228D02*
X102605640Y-146348609D01*
X102605640Y-146348609D02*
X102700878Y-146300990D01*
X102700878Y-146300990D02*
X102748497Y-146253371D01*
X102748497Y-146253371D02*
X102796116Y-146158133D01*
X102796116Y-146158133D02*
X102796116Y-146062895D01*
X102796116Y-146062895D02*
X102748497Y-145967657D01*
X102748497Y-145967657D02*
X102700878Y-145920038D01*
X102700878Y-145920038D02*
X102605640Y-145872419D01*
X102605640Y-145872419D02*
X102367545Y-145872419D01*
X102367545Y-145872419D02*
X102224688Y-145920038D01*
X101843735Y-145967657D02*
X101796116Y-145920038D01*
X101796116Y-145920038D02*
X101700878Y-145872419D01*
X101700878Y-145872419D02*
X101462783Y-145872419D01*
X101462783Y-145872419D02*
X101367545Y-145920038D01*
X101367545Y-145920038D02*
X101319926Y-145967657D01*
X101319926Y-145967657D02*
X101272307Y-146062895D01*
X101272307Y-146062895D02*
X101272307Y-146158133D01*
X101272307Y-146158133D02*
X101319926Y-146300990D01*
X101319926Y-146300990D02*
X101891354Y-146872419D01*
X101891354Y-146872419D02*
X101272307Y-146872419D01*
X135743734Y-144024800D02*
X135600877Y-144072419D01*
X135600877Y-144072419D02*
X135362782Y-144072419D01*
X135362782Y-144072419D02*
X135267544Y-144024800D01*
X135267544Y-144024800D02*
X135219925Y-143977180D01*
X135219925Y-143977180D02*
X135172306Y-143881942D01*
X135172306Y-143881942D02*
X135172306Y-143786704D01*
X135172306Y-143786704D02*
X135219925Y-143691466D01*
X135219925Y-143691466D02*
X135267544Y-143643847D01*
X135267544Y-143643847D02*
X135362782Y-143596228D01*
X135362782Y-143596228D02*
X135553258Y-143548609D01*
X135553258Y-143548609D02*
X135648496Y-143500990D01*
X135648496Y-143500990D02*
X135696115Y-143453371D01*
X135696115Y-143453371D02*
X135743734Y-143358133D01*
X135743734Y-143358133D02*
X135743734Y-143262895D01*
X135743734Y-143262895D02*
X135696115Y-143167657D01*
X135696115Y-143167657D02*
X135648496Y-143120038D01*
X135648496Y-143120038D02*
X135553258Y-143072419D01*
X135553258Y-143072419D02*
X135315163Y-143072419D01*
X135315163Y-143072419D02*
X135172306Y-143120038D01*
X134219925Y-144072419D02*
X134791353Y-144072419D01*
X134505639Y-144072419D02*
X134505639Y-143072419D01*
X134505639Y-143072419D02*
X134600877Y-143215276D01*
X134600877Y-143215276D02*
X134696115Y-143310514D01*
X134696115Y-143310514D02*
X134791353Y-143358133D01*
X131172306Y-157120038D02*
X131267544Y-157072419D01*
X131267544Y-157072419D02*
X131410401Y-157072419D01*
X131410401Y-157072419D02*
X131553258Y-157120038D01*
X131553258Y-157120038D02*
X131648496Y-157215276D01*
X131648496Y-157215276D02*
X131696115Y-157310514D01*
X131696115Y-157310514D02*
X131743734Y-157500990D01*
X131743734Y-157500990D02*
X131743734Y-157643847D01*
X131743734Y-157643847D02*
X131696115Y-157834323D01*
X131696115Y-157834323D02*
X131648496Y-157929561D01*
X131648496Y-157929561D02*
X131553258Y-158024800D01*
X131553258Y-158024800D02*
X131410401Y-158072419D01*
X131410401Y-158072419D02*
X131315163Y-158072419D01*
X131315163Y-158072419D02*
X131172306Y-158024800D01*
X131172306Y-158024800D02*
X131124687Y-157977180D01*
X131124687Y-157977180D02*
X131124687Y-157643847D01*
X131124687Y-157643847D02*
X131315163Y-157643847D01*
X130743734Y-157167657D02*
X130696115Y-157120038D01*
X130696115Y-157120038D02*
X130600877Y-157072419D01*
X130600877Y-157072419D02*
X130362782Y-157072419D01*
X130362782Y-157072419D02*
X130267544Y-157120038D01*
X130267544Y-157120038D02*
X130219925Y-157167657D01*
X130219925Y-157167657D02*
X130172306Y-157262895D01*
X130172306Y-157262895D02*
X130172306Y-157358133D01*
X130172306Y-157358133D02*
X130219925Y-157500990D01*
X130219925Y-157500990D02*
X130791353Y-158072419D01*
X130791353Y-158072419D02*
X130172306Y-158072419D01*
X135743734Y-158024800D02*
X135600877Y-158072419D01*
X135600877Y-158072419D02*
X135362782Y-158072419D01*
X135362782Y-158072419D02*
X135267544Y-158024800D01*
X135267544Y-158024800D02*
X135219925Y-157977180D01*
X135219925Y-157977180D02*
X135172306Y-157881942D01*
X135172306Y-157881942D02*
X135172306Y-157786704D01*
X135172306Y-157786704D02*
X135219925Y-157691466D01*
X135219925Y-157691466D02*
X135267544Y-157643847D01*
X135267544Y-157643847D02*
X135362782Y-157596228D01*
X135362782Y-157596228D02*
X135553258Y-157548609D01*
X135553258Y-157548609D02*
X135648496Y-157500990D01*
X135648496Y-157500990D02*
X135696115Y-157453371D01*
X135696115Y-157453371D02*
X135743734Y-157358133D01*
X135743734Y-157358133D02*
X135743734Y-157262895D01*
X135743734Y-157262895D02*
X135696115Y-157167657D01*
X135696115Y-157167657D02*
X135648496Y-157120038D01*
X135648496Y-157120038D02*
X135553258Y-157072419D01*
X135553258Y-157072419D02*
X135315163Y-157072419D01*
X135315163Y-157072419D02*
X135172306Y-157120038D01*
X134791353Y-157167657D02*
X134743734Y-157120038D01*
X134743734Y-157120038D02*
X134648496Y-157072419D01*
X134648496Y-157072419D02*
X134410401Y-157072419D01*
X134410401Y-157072419D02*
X134315163Y-157120038D01*
X134315163Y-157120038D02*
X134267544Y-157167657D01*
X134267544Y-157167657D02*
X134219925Y-157262895D01*
X134219925Y-157262895D02*
X134219925Y-157358133D01*
X134219925Y-157358133D02*
X134267544Y-157500990D01*
X134267544Y-157500990D02*
X134838972Y-158072419D01*
X134838972Y-158072419D02*
X134219925Y-158072419D01*
X102796116Y-131824800D02*
X102653259Y-131872419D01*
X102653259Y-131872419D02*
X102415164Y-131872419D01*
X102415164Y-131872419D02*
X102319926Y-131824800D01*
X102319926Y-131824800D02*
X102272307Y-131777180D01*
X102272307Y-131777180D02*
X102224688Y-131681942D01*
X102224688Y-131681942D02*
X102224688Y-131586704D01*
X102224688Y-131586704D02*
X102272307Y-131491466D01*
X102272307Y-131491466D02*
X102319926Y-131443847D01*
X102319926Y-131443847D02*
X102415164Y-131396228D01*
X102415164Y-131396228D02*
X102605640Y-131348609D01*
X102605640Y-131348609D02*
X102700878Y-131300990D01*
X102700878Y-131300990D02*
X102748497Y-131253371D01*
X102748497Y-131253371D02*
X102796116Y-131158133D01*
X102796116Y-131158133D02*
X102796116Y-131062895D01*
X102796116Y-131062895D02*
X102748497Y-130967657D01*
X102748497Y-130967657D02*
X102700878Y-130920038D01*
X102700878Y-130920038D02*
X102605640Y-130872419D01*
X102605640Y-130872419D02*
X102367545Y-130872419D01*
X102367545Y-130872419D02*
X102224688Y-130920038D01*
X101272307Y-131872419D02*
X101843735Y-131872419D01*
X101558021Y-131872419D02*
X101558021Y-130872419D01*
X101558021Y-130872419D02*
X101653259Y-131015276D01*
X101653259Y-131015276D02*
X101748497Y-131110514D01*
X101748497Y-131110514D02*
X101843735Y-131158133D01*
X139838972Y-157072419D02*
X139505639Y-158072419D01*
X139505639Y-158072419D02*
X139172306Y-157072419D01*
X138886591Y-157167657D02*
X138838972Y-157120038D01*
X138838972Y-157120038D02*
X138743734Y-157072419D01*
X138743734Y-157072419D02*
X138505639Y-157072419D01*
X138505639Y-157072419D02*
X138410401Y-157120038D01*
X138410401Y-157120038D02*
X138362782Y-157167657D01*
X138362782Y-157167657D02*
X138315163Y-157262895D01*
X138315163Y-157262895D02*
X138315163Y-157358133D01*
X138315163Y-157358133D02*
X138362782Y-157500990D01*
X138362782Y-157500990D02*
X138934210Y-158072419D01*
X138934210Y-158072419D02*
X138315163Y-158072419D01*
X169038972Y-150872419D02*
X168705639Y-151872419D01*
X168705639Y-151872419D02*
X168372306Y-150872419D01*
X167515163Y-151872419D02*
X168086591Y-151872419D01*
X167800877Y-151872419D02*
X167800877Y-150872419D01*
X167800877Y-150872419D02*
X167896115Y-151015276D01*
X167896115Y-151015276D02*
X167991353Y-151110514D01*
X167991353Y-151110514D02*
X168086591Y-151158133D01*
X168943734Y-146824800D02*
X168800877Y-146872419D01*
X168800877Y-146872419D02*
X168562782Y-146872419D01*
X168562782Y-146872419D02*
X168467544Y-146824800D01*
X168467544Y-146824800D02*
X168419925Y-146777180D01*
X168419925Y-146777180D02*
X168372306Y-146681942D01*
X168372306Y-146681942D02*
X168372306Y-146586704D01*
X168372306Y-146586704D02*
X168419925Y-146491466D01*
X168419925Y-146491466D02*
X168467544Y-146443847D01*
X168467544Y-146443847D02*
X168562782Y-146396228D01*
X168562782Y-146396228D02*
X168753258Y-146348609D01*
X168753258Y-146348609D02*
X168848496Y-146300990D01*
X168848496Y-146300990D02*
X168896115Y-146253371D01*
X168896115Y-146253371D02*
X168943734Y-146158133D01*
X168943734Y-146158133D02*
X168943734Y-146062895D01*
X168943734Y-146062895D02*
X168896115Y-145967657D01*
X168896115Y-145967657D02*
X168848496Y-145920038D01*
X168848496Y-145920038D02*
X168753258Y-145872419D01*
X168753258Y-145872419D02*
X168515163Y-145872419D01*
X168515163Y-145872419D02*
X168372306Y-145920038D01*
X167419925Y-146872419D02*
X167991353Y-146872419D01*
X167705639Y-146872419D02*
X167705639Y-145872419D01*
X167705639Y-145872419D02*
X167800877Y-146015276D01*
X167800877Y-146015276D02*
X167896115Y-146110514D01*
X167896115Y-146110514D02*
X167991353Y-146158133D01*
X168396116Y-125920038D02*
X168491354Y-125872419D01*
X168491354Y-125872419D02*
X168634211Y-125872419D01*
X168634211Y-125872419D02*
X168777068Y-125920038D01*
X168777068Y-125920038D02*
X168872306Y-126015276D01*
X168872306Y-126015276D02*
X168919925Y-126110514D01*
X168919925Y-126110514D02*
X168967544Y-126300990D01*
X168967544Y-126300990D02*
X168967544Y-126443847D01*
X168967544Y-126443847D02*
X168919925Y-126634323D01*
X168919925Y-126634323D02*
X168872306Y-126729561D01*
X168872306Y-126729561D02*
X168777068Y-126824800D01*
X168777068Y-126824800D02*
X168634211Y-126872419D01*
X168634211Y-126872419D02*
X168538973Y-126872419D01*
X168538973Y-126872419D02*
X168396116Y-126824800D01*
X168396116Y-126824800D02*
X168348497Y-126777180D01*
X168348497Y-126777180D02*
X168348497Y-126443847D01*
X168348497Y-126443847D02*
X168538973Y-126443847D01*
X167967544Y-125967657D02*
X167919925Y-125920038D01*
X167919925Y-125920038D02*
X167824687Y-125872419D01*
X167824687Y-125872419D02*
X167586592Y-125872419D01*
X167586592Y-125872419D02*
X167491354Y-125920038D01*
X167491354Y-125920038D02*
X167443735Y-125967657D01*
X167443735Y-125967657D02*
X167396116Y-126062895D01*
X167396116Y-126062895D02*
X167396116Y-126158133D01*
X167396116Y-126158133D02*
X167443735Y-126300990D01*
X167443735Y-126300990D02*
X168015163Y-126872419D01*
X168015163Y-126872419D02*
X167396116Y-126872419D01*
X102891354Y-140872419D02*
X102558021Y-141872419D01*
X102558021Y-141872419D02*
X102224688Y-140872419D01*
X101938973Y-140967657D02*
X101891354Y-140920038D01*
X101891354Y-140920038D02*
X101796116Y-140872419D01*
X101796116Y-140872419D02*
X101558021Y-140872419D01*
X101558021Y-140872419D02*
X101462783Y-140920038D01*
X101462783Y-140920038D02*
X101415164Y-140967657D01*
X101415164Y-140967657D02*
X101367545Y-141062895D01*
X101367545Y-141062895D02*
X101367545Y-141158133D01*
X101367545Y-141158133D02*
X101415164Y-141300990D01*
X101415164Y-141300990D02*
X101986592Y-141872419D01*
X101986592Y-141872419D02*
X101367545Y-141872419D01*
X102224688Y-135920038D02*
X102319926Y-135872419D01*
X102319926Y-135872419D02*
X102462783Y-135872419D01*
X102462783Y-135872419D02*
X102605640Y-135920038D01*
X102605640Y-135920038D02*
X102700878Y-136015276D01*
X102700878Y-136015276D02*
X102748497Y-136110514D01*
X102748497Y-136110514D02*
X102796116Y-136300990D01*
X102796116Y-136300990D02*
X102796116Y-136443847D01*
X102796116Y-136443847D02*
X102748497Y-136634323D01*
X102748497Y-136634323D02*
X102700878Y-136729561D01*
X102700878Y-136729561D02*
X102605640Y-136824800D01*
X102605640Y-136824800D02*
X102462783Y-136872419D01*
X102462783Y-136872419D02*
X102367545Y-136872419D01*
X102367545Y-136872419D02*
X102224688Y-136824800D01*
X102224688Y-136824800D02*
X102177069Y-136777180D01*
X102177069Y-136777180D02*
X102177069Y-136443847D01*
X102177069Y-136443847D02*
X102367545Y-136443847D01*
X101224688Y-136872419D02*
X101796116Y-136872419D01*
X101510402Y-136872419D02*
X101510402Y-135872419D01*
X101510402Y-135872419D02*
X101605640Y-136015276D01*
X101605640Y-136015276D02*
X101700878Y-136110514D01*
X101700878Y-136110514D02*
X101796116Y-136158133D01*
X169038972Y-135872419D02*
X168705639Y-136872419D01*
X168705639Y-136872419D02*
X168372306Y-135872419D01*
X168086591Y-135967657D02*
X168038972Y-135920038D01*
X168038972Y-135920038D02*
X167943734Y-135872419D01*
X167943734Y-135872419D02*
X167705639Y-135872419D01*
X167705639Y-135872419D02*
X167610401Y-135920038D01*
X167610401Y-135920038D02*
X167562782Y-135967657D01*
X167562782Y-135967657D02*
X167515163Y-136062895D01*
X167515163Y-136062895D02*
X167515163Y-136158133D01*
X167515163Y-136158133D02*
X167562782Y-136300990D01*
X167562782Y-136300990D02*
X168134210Y-136872419D01*
X168134210Y-136872419D02*
X167515163Y-136872419D01*
X168372306Y-140920038D02*
X168467544Y-140872419D01*
X168467544Y-140872419D02*
X168610401Y-140872419D01*
X168610401Y-140872419D02*
X168753258Y-140920038D01*
X168753258Y-140920038D02*
X168848496Y-141015276D01*
X168848496Y-141015276D02*
X168896115Y-141110514D01*
X168896115Y-141110514D02*
X168943734Y-141300990D01*
X168943734Y-141300990D02*
X168943734Y-141443847D01*
X168943734Y-141443847D02*
X168896115Y-141634323D01*
X168896115Y-141634323D02*
X168848496Y-141729561D01*
X168848496Y-141729561D02*
X168753258Y-141824800D01*
X168753258Y-141824800D02*
X168610401Y-141872419D01*
X168610401Y-141872419D02*
X168515163Y-141872419D01*
X168515163Y-141872419D02*
X168372306Y-141824800D01*
X168372306Y-141824800D02*
X168324687Y-141777180D01*
X168324687Y-141777180D02*
X168324687Y-141443847D01*
X168324687Y-141443847D02*
X168515163Y-141443847D01*
X167372306Y-141872419D02*
X167943734Y-141872419D01*
X167658020Y-141872419D02*
X167658020Y-140872419D01*
X167658020Y-140872419D02*
X167753258Y-141015276D01*
X167753258Y-141015276D02*
X167848496Y-141110514D01*
X167848496Y-141110514D02*
X167943734Y-141158133D01*
X131172306Y-143120038D02*
X131267544Y-143072419D01*
X131267544Y-143072419D02*
X131410401Y-143072419D01*
X131410401Y-143072419D02*
X131553258Y-143120038D01*
X131553258Y-143120038D02*
X131648496Y-143215276D01*
X131648496Y-143215276D02*
X131696115Y-143310514D01*
X131696115Y-143310514D02*
X131743734Y-143500990D01*
X131743734Y-143500990D02*
X131743734Y-143643847D01*
X131743734Y-143643847D02*
X131696115Y-143834323D01*
X131696115Y-143834323D02*
X131648496Y-143929561D01*
X131648496Y-143929561D02*
X131553258Y-144024800D01*
X131553258Y-144024800D02*
X131410401Y-144072419D01*
X131410401Y-144072419D02*
X131315163Y-144072419D01*
X131315163Y-144072419D02*
X131172306Y-144024800D01*
X131172306Y-144024800D02*
X131124687Y-143977180D01*
X131124687Y-143977180D02*
X131124687Y-143643847D01*
X131124687Y-143643847D02*
X131315163Y-143643847D01*
X130172306Y-144072419D02*
X130743734Y-144072419D01*
X130458020Y-144072419D02*
X130458020Y-143072419D01*
X130458020Y-143072419D02*
X130553258Y-143215276D01*
X130553258Y-143215276D02*
X130648496Y-143310514D01*
X130648496Y-143310514D02*
X130743734Y-143358133D01*
X139838972Y-143072419D02*
X139505639Y-144072419D01*
X139505639Y-144072419D02*
X139172306Y-143072419D01*
X138315163Y-144072419D02*
X138886591Y-144072419D01*
X138600877Y-144072419D02*
X138600877Y-143072419D01*
X138600877Y-143072419D02*
X138696115Y-143215276D01*
X138696115Y-143215276D02*
X138791353Y-143310514D01*
X138791353Y-143310514D02*
X138886591Y-143358133D01*
X168943734Y-131824800D02*
X168800877Y-131872419D01*
X168800877Y-131872419D02*
X168562782Y-131872419D01*
X168562782Y-131872419D02*
X168467544Y-131824800D01*
X168467544Y-131824800D02*
X168419925Y-131777180D01*
X168419925Y-131777180D02*
X168372306Y-131681942D01*
X168372306Y-131681942D02*
X168372306Y-131586704D01*
X168372306Y-131586704D02*
X168419925Y-131491466D01*
X168419925Y-131491466D02*
X168467544Y-131443847D01*
X168467544Y-131443847D02*
X168562782Y-131396228D01*
X168562782Y-131396228D02*
X168753258Y-131348609D01*
X168753258Y-131348609D02*
X168848496Y-131300990D01*
X168848496Y-131300990D02*
X168896115Y-131253371D01*
X168896115Y-131253371D02*
X168943734Y-131158133D01*
X168943734Y-131158133D02*
X168943734Y-131062895D01*
X168943734Y-131062895D02*
X168896115Y-130967657D01*
X168896115Y-130967657D02*
X168848496Y-130920038D01*
X168848496Y-130920038D02*
X168753258Y-130872419D01*
X168753258Y-130872419D02*
X168515163Y-130872419D01*
X168515163Y-130872419D02*
X168372306Y-130920038D01*
X167991353Y-130967657D02*
X167943734Y-130920038D01*
X167943734Y-130920038D02*
X167848496Y-130872419D01*
X167848496Y-130872419D02*
X167610401Y-130872419D01*
X167610401Y-130872419D02*
X167515163Y-130920038D01*
X167515163Y-130920038D02*
X167467544Y-130967657D01*
X167467544Y-130967657D02*
X167419925Y-131062895D01*
X167419925Y-131062895D02*
X167419925Y-131158133D01*
X167419925Y-131158133D02*
X167467544Y-131300990D01*
X167467544Y-131300990D02*
X168038972Y-131872419D01*
X168038972Y-131872419D02*
X167419925Y-131872419D01*
X102224688Y-150920038D02*
X102319926Y-150872419D01*
X102319926Y-150872419D02*
X102462783Y-150872419D01*
X102462783Y-150872419D02*
X102605640Y-150920038D01*
X102605640Y-150920038D02*
X102700878Y-151015276D01*
X102700878Y-151015276D02*
X102748497Y-151110514D01*
X102748497Y-151110514D02*
X102796116Y-151300990D01*
X102796116Y-151300990D02*
X102796116Y-151443847D01*
X102796116Y-151443847D02*
X102748497Y-151634323D01*
X102748497Y-151634323D02*
X102700878Y-151729561D01*
X102700878Y-151729561D02*
X102605640Y-151824800D01*
X102605640Y-151824800D02*
X102462783Y-151872419D01*
X102462783Y-151872419D02*
X102367545Y-151872419D01*
X102367545Y-151872419D02*
X102224688Y-151824800D01*
X102224688Y-151824800D02*
X102177069Y-151777180D01*
X102177069Y-151777180D02*
X102177069Y-151443847D01*
X102177069Y-151443847D02*
X102367545Y-151443847D01*
X101796116Y-150967657D02*
X101748497Y-150920038D01*
X101748497Y-150920038D02*
X101653259Y-150872419D01*
X101653259Y-150872419D02*
X101415164Y-150872419D01*
X101415164Y-150872419D02*
X101319926Y-150920038D01*
X101319926Y-150920038D02*
X101272307Y-150967657D01*
X101272307Y-150967657D02*
X101224688Y-151062895D01*
X101224688Y-151062895D02*
X101224688Y-151158133D01*
X101224688Y-151158133D02*
X101272307Y-151300990D01*
X101272307Y-151300990D02*
X101843735Y-151872419D01*
X101843735Y-151872419D02*
X101224688Y-151872419D01*
%LPC*%
D11*
%TO.C,R26*%
X154100000Y-128630000D03*
D12*
X154100000Y-121010000D03*
%TD*%
D13*
%TO.C,R15*%
X118590000Y-103000000D03*
X121130000Y-105540000D03*
X123670000Y-103000000D03*
%TD*%
D14*
%TO.C,J3*%
X104852382Y-126200000D03*
D15*
X104852382Y-131200000D03*
X104852382Y-136200000D03*
X104852382Y-141200000D03*
X104852382Y-146200000D03*
X104852382Y-151200000D03*
%TD*%
D16*
%TO.C,U2*%
X138800000Y-128620000D03*
D12*
X141340000Y-128620000D03*
X143880000Y-128620000D03*
X146420000Y-128620000D03*
X146420000Y-121000000D03*
X143880000Y-121000000D03*
X141340000Y-121000000D03*
X138800000Y-121000000D03*
%TD*%
D11*
%TO.C,R24*%
X152000000Y-134190000D03*
D12*
X152000000Y-141810000D03*
%TD*%
D16*
%TO.C,U1*%
X115800000Y-128620000D03*
D12*
X118340000Y-128620000D03*
X120880000Y-128620000D03*
X123420000Y-128620000D03*
X123420000Y-121000000D03*
X120880000Y-121000000D03*
X118340000Y-121000000D03*
X115800000Y-121000000D03*
%TD*%
D11*
%TO.C,R11*%
X118000000Y-134380000D03*
D12*
X118000000Y-142000000D03*
%TD*%
D13*
%TO.C,R12*%
X105920000Y-103000000D03*
X108460000Y-105540000D03*
X111000000Y-103000000D03*
%TD*%
%TO.C,R25*%
X159450000Y-103000000D03*
X161990000Y-105540000D03*
X164530000Y-103000000D03*
%TD*%
D17*
%TO.C,J2*%
X139126191Y-153000000D03*
D18*
X139126191Y-147500000D03*
X134926191Y-153000000D03*
X134926191Y-147500000D03*
X130726191Y-153000000D03*
X130726191Y-147500000D03*
D19*
X126226191Y-157200000D03*
X143626191Y-157200000D03*
%TD*%
D20*
%TO.C,SW1*%
X134500000Y-106500000D03*
X134500000Y-109000000D03*
X134500000Y-111500000D03*
X137000000Y-106500000D03*
X137000000Y-109000000D03*
X137000000Y-111500000D03*
D18*
X139650000Y-103450000D03*
X131850000Y-103450000D03*
%TD*%
D21*
%TO.C,REF\u002A\u002A*%
X163000000Y-114000000D03*
%TD*%
D11*
%TO.C,R17*%
X124950000Y-113300000D03*
D12*
X117330000Y-113300000D03*
%TD*%
D11*
%TO.C,R16*%
X131100000Y-121010000D03*
D12*
X131100000Y-128630000D03*
%TD*%
D11*
%TO.C,R21*%
X138400000Y-134380000D03*
D12*
X138400000Y-142000000D03*
%TD*%
D21*
%TO.C,REF\u002A\u002A*%
X107000000Y-114000000D03*
%TD*%
D22*
%TO.C,J1*%
X165000000Y-151200000D03*
D15*
X165000000Y-146200000D03*
X165000000Y-141200000D03*
X165000000Y-136200000D03*
X165000000Y-131200000D03*
X165000000Y-126200000D03*
%TD*%
D13*
%TO.C,R22*%
X146780000Y-103000000D03*
X149320000Y-105540000D03*
X151860000Y-103000000D03*
%TD*%
D21*
%TO.C,REF\u002A\u002A*%
X115000000Y-155000000D03*
%TD*%
D11*
%TO.C,R14*%
X131600000Y-134380000D03*
D12*
X131600000Y-142000000D03*
%TD*%
D11*
%TO.C,R27*%
X153140000Y-113300000D03*
D12*
X145520000Y-113300000D03*
%TD*%
D21*
%TO.C,REF\u002A\u002A*%
X155000000Y-155000000D03*
%TD*%
D11*
%TO.C,R23*%
X145200000Y-134380000D03*
D12*
X145200000Y-142000000D03*
%TD*%
D11*
%TO.C,R13*%
X124800000Y-134380000D03*
D12*
X124800000Y-142000000D03*
%TD*%
%LPD*%
M02*
