M48
; DRILL file {KiCad 8.0.3} date 2024-07-01T16:11:17-0700
; FORMAT={-:-/ absolute / metric / decimal}
; #@! TF.CreationDate,2024-07-01T16:11:17-07:00
; #@! TF.GenerationSoftware,Kicad,Pcbnew,8.0.3
; #@! TF.FileFunction,Plated,1,2,PTH
FMAT,2
METRIC
; #@! TA.AperFunction,Plated,PTH,ViaDrill
T1C0.300
; #@! TA.AperFunction,Plated,PTH,ComponentDrill
T2C0.800
; #@! TA.AperFunction,Plated,PTH,ComponentDrill
T3C0.900
; #@! TA.AperFunction,Plated,PTH,ComponentDrill
T4C1.300
; #@! TA.AperFunction,Plated,PTH,ComponentDrill
T5C1.800
; #@! TA.AperFunction,Plated,PTH,ComponentDrill
T6C3.200
%
G90
G05
T1
X146.0Y-148.55
T2
X105.92Y-103.0
X108.46Y-105.54
X111.0Y-103.0
X115.8Y-121.0
X115.8Y-128.62
X117.33Y-113.3
X118.0Y-134.38
X118.0Y-142.0
X118.34Y-121.0
X118.34Y-128.62
X118.59Y-103.0
X120.88Y-121.0
X120.88Y-128.62
X121.13Y-105.54
X123.42Y-121.0
X123.42Y-128.62
X123.67Y-103.0
X124.8Y-134.38
X124.8Y-142.0
X124.95Y-113.3
X131.1Y-121.01
X131.1Y-128.63
X131.6Y-134.38
X131.6Y-142.0
X138.4Y-134.38
X138.4Y-142.0
X138.8Y-121.0
X138.8Y-128.62
X141.34Y-121.0
X141.34Y-128.62
X143.88Y-121.0
X143.88Y-128.62
X145.2Y-134.38
X145.2Y-142.0
X145.52Y-113.3
X146.42Y-121.0
X146.42Y-128.62
X146.78Y-103.0
X149.32Y-105.54
X151.86Y-103.0
X152.0Y-134.19
X152.0Y-141.81
X153.14Y-113.3
X154.1Y-121.01
X154.1Y-128.63
X159.45Y-103.0
X161.99Y-105.54
X164.53Y-103.0
T3
X134.5Y-106.5
X134.5Y-109.0
X134.5Y-111.5
X137.0Y-106.5
X137.0Y-109.0
X137.0Y-111.5
T4
X104.852Y-126.2
X104.852Y-131.2
X104.852Y-136.2
X104.852Y-141.2
X104.852Y-146.2
X104.852Y-151.2
X165.0Y-126.2
X165.0Y-131.2
X165.0Y-136.2
X165.0Y-141.2
X165.0Y-146.2
X165.0Y-151.2
T5
X130.726Y-147.5
X130.726Y-153.0
X131.85Y-103.45
X134.926Y-147.5
X134.926Y-153.0
X139.126Y-147.5
X139.126Y-153.0
X139.65Y-103.45
T6
X107.0Y-114.0
X115.0Y-155.0
X126.226Y-157.2
X143.626Y-157.2
X155.0Y-155.0
X163.0Y-114.0
M30
